<?xml version="1.0" encoding="UTF-8" standalone="no"?>
<!-- Created with Inkscape (http://www.inkscape.org/) -->

<svg
   xmlns:dc="http://purl.org/dc/elements/1.1/"
   xmlns:cc="http://creativecommons.org/ns#"
   xmlns:rdf="http://www.w3.org/1999/02/22-rdf-syntax-ns#"
   xmlns:svg="http://www.w3.org/2000/svg"
   xmlns="http://www.w3.org/2000/svg"
   xmlns:sodipodi="http://sodipodi.sourceforge.net/DTD/sodipodi-0.dtd"
   xmlns:inkscape="http://www.inkscape.org/namespaces/inkscape"
   width="423.94965"
   height="107.85092"
   id="svg2"
   version="1.1"
   inkscape:version="0.48.2 r9819"
   sodipodi:docname="zojul_full.svg"
   inkscape:export-filename="C:\Users\Olly\Documents\Zojul\images\zojul_128.png"
   inkscape:export-xdpi="106.78155"
   inkscape:export-ydpi="106.78155">
  <defs
     id="defs4" />
  <sodipodi:namedview
     id="base"
     pagecolor="#000000"
     bordercolor="#666666"
     borderopacity="1.0"
     inkscape:pageopacity="0"
     inkscape:pageshadow="2"
     inkscape:zoom="0.5"
     inkscape:cx="236.52177"
     inkscape:cy="-261.43911"
     inkscape:document-units="px"
     inkscape:current-layer="layer1"
     showgrid="true"
     inkscape:window-width="1366"
     inkscape:window-height="706"
     inkscape:window-x="-8"
     inkscape:window-y="-8"
     inkscape:window-maximized="1"
     fit-margin-top="0"
     fit-margin-left="0"
     fit-margin-right="0"
     fit-margin-bottom="0"
     showguides="true"
     inkscape:guide-bbox="true">
    <inkscape:grid
       type="xygrid"
       id="grid2985"
       units="mm"
       empspacing="5"
       visible="true"
       enabled="true"
       snapvisiblegridlinesonly="true" />
  </sodipodi:namedview>
  <metadata
     id="metadata7">
    <rdf:RDF>
      <cc:Work
         rdf:about="">
        <dc:format>image/svg+xml</dc:format>
        <dc:type
           rdf:resource="http://purl.org/dc/dcmitype/StillImage" />
        <dc:title></dc:title>
      </cc:Work>
    </rdf:RDF>
  </metadata>
  <g
     inkscape:label="Layer 1"
     inkscape:groupmode="layer"
     id="layer1"
     transform="translate(-159.48339,-37.482507)">
    <path
       style="font-size:102px;font-style:normal;font-variant:normal;font-weight:bold;font-stretch:normal;line-height:125%;letter-spacing:0px;word-spacing:0px;fill:#0058bb;fill-opacity:1;stroke:none;font-family:Aharoni;-inkscape-font-specification:Aharoni Bold"
       sodipodi:nodetypes="ccccccccc"
       inkscape:connector-curvature="0"
       id="path3017-7"
       d="m 345.70629,57.350013 -32.02441,53.191407 32.53809,0 0,14.792 -62.17188,0 32.17383,-53.191415 -32.74512,0 0,-14.791992 z" />
    <path
       d="m 535.57672,94.803144 c -7e-5,4.08401 -0.3321,7.570336 -0.9961,10.458986 -1.02936,4.48243 -3.48639,8.56641 -7.37109,12.25195 -5.51177,5.21289 -12.88286,7.81933 -22.11328,7.81934 -9.39651,-1e-5 -16.73439,-2.65625 -22.01367,-7.96875 -2.78908,-2.78906 -4.69825,-6.29198 -5.72754,-10.50879 -0.73048,-2.98826 -1.09571,-7.005836 -1.0957,-12.052736 l 0,-37.451946 17.68066,0 0,35.061326 c -3e-5,2.9551 0.0498,5.16311 0.14941,6.62402 0.33201,4.615256 2.44041,7.835946 6.3252,9.662106 1.59372,0.76369 3.35348,1.14552 5.2793,1.14551 4.31636,1e-5 7.57026,-1.51073 9.76171,-4.53223 1.62691,-2.22459 2.44039,-6.524386 2.44043,-12.899406 l 0,-35.061326 17.68067,0 z"
       style="font-size:102px;font-style:normal;font-variant:normal;font-weight:bold;font-stretch:normal;line-height:125%;letter-spacing:0px;word-spacing:0px;fill:#0058bb;fill-opacity:1;stroke:none;font-family:Aharoni;-inkscape-font-specification:Aharoni Bold"
       id="path3028"
       inkscape:connector-curvature="0"
       sodipodi:nodetypes="cccsccscccccccsccc" />
    <path
       d="m 583.43303,125.33342 -38.89747,0 0,-67.983407 17.68067,0 0,53.191407 21.2168,0 z"
       style="font-size:102px;font-style:normal;font-variant:normal;font-weight:bold;font-stretch:normal;line-height:125%;letter-spacing:0px;word-spacing:0px;fill:#0058bb;fill-opacity:1;stroke:none;font-family:Aharoni;-inkscape-font-specification:Aharoni Bold"
       id="path3030"
       inkscape:connector-curvature="0" />
    <g
       id="text3032"
       style="font-size:18.76277733px;font-style:normal;font-variant:normal;font-weight:normal;font-stretch:normal;line-height:125%;letter-spacing:0px;word-spacing:0px;fill:#0058bb;fill-opacity:1;stroke:none;font-family:MoolBoran;-inkscape-font-specification:MoolBoran"
       transform="translate(10,-26.28089)">
      <path
         inkscape:connector-curvature="0"
         id="path3076"
         style="font-size:95.69016266px;font-weight:bold;fill:#0058bb;font-family:Aharoni;-inkscape-font-specification:Aharoni Bold"
         d="m 408.15869,117.64617 c -8e-5,8.65948 -2.88137,16.25986 -8.64389,22.80117 -6.57253,7.44465 -15.4656,11.16696 -26.67924,11.16697 -11.18257,-1e-5 -20.06007,-3.72232 -26.63252,-11.16697 -5.76259,-6.54131 -8.64389,-14.14169 -8.64388,-22.80117 -1e-5,-3.95591 0.77872,-8.01308 2.33618,-12.17153 1.55745,-4.15836 3.64444,-7.717148 6.26098,-10.676368 6.57245,-7.444583 15.46552,-11.166901 26.67924,-11.166967 11.21364,6.6e-5 20.10671,3.722384 26.67924,11.166967 5.76252,6.541368 8.64381,14.157328 8.64389,22.847898 z m -17.24105,0 c -6e-5,-4.48544 -1.43292,-8.36351 -4.29858,-11.63421 -3.67565,-4.17393 -8.27015,-6.260925 -13.7835,-6.260974 -3.80023,4.9e-5 -7.24221,1.066904 -10.32594,3.200574 -3.08379,2.13376 -5.2798,4.97612 -6.58804,8.52708 -0.7476,2.02473 -1.12139,4.08057 -1.12137,6.16753 -2e-5,4.29861 1.43284,8.14552 4.29858,11.54075 3.55097,4.20515 8.12989,6.30772 13.73677,6.30771 5.6068,1e-5 10.2013,-2.08698 13.7835,-6.26098 2.86566,-3.33294 4.29852,-7.19543 4.29858,-11.58748 z" />
    </g>
    <path
       d="m 467.32532,94.803129 c -7e-5,4.08401 -0.3321,7.570341 -0.9961,10.459001 -1.02936,4.48243 -3.48639,8.56641 -7.37109,12.25195 -5.51177,5.21289 -12.88286,7.81933 -22.11328,7.81934 -9.39651,-1e-5 -16.73439,-2.65625 -22.01367,-7.96875 l 11.71549,-14.78484 c 1.41732,3.54331 2.48032,4.25197 5.61654,6.11882 1.59372,0.76369 3.35348,1.14552 5.2793,1.14551 4.31636,1e-5 7.57026,-1.51073 9.76171,-4.53223 1.62691,-2.2246 2.44039,-6.524401 2.44043,-12.899421 l 0,-35.06132 17.68067,0 z"
       style="font-size:102px;font-style:normal;font-variant:normal;font-weight:bold;font-stretch:normal;line-height:125%;letter-spacing:0px;word-spacing:0px;fill:#0058bb;fill-opacity:1;stroke:none;font-family:Aharoni;-inkscape-font-specification:Aharoni Bold"
       id="path3028-1-4"
       inkscape:connector-curvature="0"
       sodipodi:nodetypes="cccscccccsccc" />
    <g
       id="g3004"
       transform="translate(-4,0)">
      <path
         id="path3932"
         d="m 217.41381,37.482507 c -11.72538,0 -22.58081,3.741171 -31.42886,10.096471 l 53.89078,0 c 6.74071,0 8.99214,4.495207 4.49833,11.235915 l -31.45858,53.930417 c -4.46261,6.69391 -2.27222,10.0599 4.35961,10.10638 l 18.66708,-31.111798 3.3787,2.021276 -17.45827,29.090522 9.92803,0 14.83259,-24.711091 3.3688,2.021271 -13.61389,22.68982 9.92803,0 10.98821,-18.31038 3.3688,2.02127 -9.77941,16.28911 10.33427,0 c 10e-4,-0.002 0.009,0.002 0.01,0 6.36364,-8.85154 10.10638,-19.71486 10.10638,-31.448677 C 271.331,61.62303 247.19378,37.482507 217.41379,37.482507 z"
         style="fill:#ec5307;fill-opacity:1;stroke:none"
         inkscape:connector-curvature="0" />
      <path
         id="path2987"
         d="m 173.60959,59.944429 c -6.37285,8.855373 -10.1262,19.715449 -10.1262,31.458584 0,29.782317 24.1481,53.930417 53.93042,53.930417 11.73484,0 22.58681,-3.75163 31.43876,-10.11629 l -53.91059,0 c -6.74071,0 -8.99214,-4.49521 -4.49833,-11.23592 l 32.57821,-53.930411 c 4.4938,-6.74071 3.37191,-10.10638 -3.3688,-10.10638 l -2.11045,0 -18.66707,31.121705 -3.3787,-2.031184 17.45827,-29.090521 -9.92803,0 -14.8326,24.711089 -3.36879,-2.021276 13.61389,-22.689813 -9.92804,0 -10.98821,18.310382 -3.36879,-2.021276 9.77941,-16.289106 -10.32436,0 z"
         style="fill:#0058bb;fill-opacity:1;stroke:none"
         inkscape:connector-curvature="0" />
    </g>
  </g>
</svg>
